<svg width="174" height="43" viewBox="0 0 174 43" fill="none" xmlns="http://www.w3.org/2000/svg">
<path d="M31.0692 1.18337L31.6067 1.1373C31.0232 0.799444 30.3474 0.599799 29.6257 0.584442L4.99262 0.000866534C2.70439 -0.0452052 0.815451 1.75159 0.769379 4.02447L0.00151683 36.5204C-0.0599122 38.7933 1.75224 40.6976 4.02512 40.7437L16.3416 41.0354L28.6581 41.3272C28.9653 41.3272 29.2724 41.3119 29.5489 41.2504C29.2571 40.6669 29.0574 40.0219 28.996 39.3308L26.201 6.9577C25.9553 4.03982 28.1206 1.44445 31.0385 1.19873L31.0692 1.18337Z" fill="#FCE301"/>
<path d="M63.5652 36.3973L60.7702 4.02419C60.5705 1.75132 58.5741 0.0773806 56.3012 0.261668L31.7603 2.38097C29.4875 2.58061 27.8135 4.57706 28.0132 6.84993L30.8082 39.223C31.0078 41.4959 33.0043 43.1698 35.2771 42.9855L59.818 40.8662C62.0909 40.6666 63.7648 38.6702 63.5652 36.3973Z" fill="#FCE301"/>
<path d="M72.4112 31.1146C72.2115 31.1146 72.0272 31.0378 71.8736 30.8842C71.7201 30.7307 71.6279 30.5464 71.6279 30.3314V10.8277C71.6279 10.6127 71.7047 10.4284 71.8736 10.2748C72.0272 10.1212 72.2115 10.0444 72.4112 10.0444H82.0094C83.8369 10.0444 85.3266 10.2902 86.4937 10.7662C87.6609 11.2423 88.5209 11.9334 89.0738 12.8395C89.6266 13.7455 89.9184 14.8513 89.9184 16.1873C89.9184 16.8631 89.7802 17.4773 89.5191 18.0148C89.2427 18.5524 88.9202 18.9824 88.5363 19.3356C88.1523 19.6888 87.7991 19.9345 87.4613 20.1034C88.2445 20.4413 88.9202 21.0249 89.5038 21.8388C90.0873 22.6527 90.3791 23.5742 90.3791 24.6185C90.3791 26.016 90.0566 27.2138 89.427 28.166C88.7973 29.1335 87.8759 29.8553 86.6934 30.3621C85.4955 30.8689 84.0366 31.1146 82.3166 31.1146H72.4265H72.4112ZM78.0933 18.1991H81.3184C81.9634 18.1991 82.4241 18.0148 82.7312 17.6616C83.0384 17.3084 83.1766 16.8784 83.1766 16.4023C83.1766 15.9263 83.023 15.4963 82.7312 15.143C82.4394 14.7898 81.9634 14.6055 81.3184 14.6055H78.0933V18.2145V18.1991ZM78.0933 26.5688H81.6101C82.2859 26.5688 82.7927 26.3692 83.1152 25.9545C83.4377 25.5399 83.5912 25.0792 83.5912 24.5878C83.5912 24.0963 83.4223 23.6049 83.0844 23.221C82.7466 22.837 82.2551 22.6374 81.6101 22.6374H78.0933V26.5842V26.5688Z" fill="white"/>
<path d="M94.0343 31.1146C93.8346 31.1146 93.6503 31.0378 93.4968 30.8842C93.3432 30.7307 93.251 30.5464 93.251 30.3314V10.8277C93.251 10.6127 93.3278 10.4284 93.4968 10.2748C93.6503 10.1212 93.8346 10.0444 94.0343 10.0444H99.0254C99.2404 10.0444 99.44 10.1212 99.5936 10.2748C99.7472 10.4284 99.8393 10.6127 99.8393 10.8277V25.7549H108.531C108.746 25.7549 108.946 25.8317 109.1 25.9853C109.253 26.1388 109.345 26.3231 109.345 26.5381V30.3314C109.345 30.5464 109.269 30.7307 109.1 30.8842C108.946 31.0378 108.746 31.1146 108.531 31.1146H94.0343Z" fill="white"/>
<path d="M110.543 31.1146C110.358 31.1146 110.205 31.0532 110.082 30.9149C109.944 30.7767 109.882 30.6231 109.882 30.4542C109.882 30.3774 109.898 30.3006 109.944 30.2392L116.793 10.9812C116.855 10.7662 116.993 10.5512 117.192 10.3516C117.407 10.1519 117.684 10.0444 118.052 10.0444H123.55C123.934 10.0444 124.226 10.1519 124.426 10.3516C124.625 10.5512 124.763 10.7662 124.81 10.9812L131.69 30.2392C131.69 30.2392 131.72 30.3774 131.72 30.4542C131.72 30.6385 131.659 30.7921 131.521 30.9149C131.382 31.0532 131.229 31.1146 131.06 31.1146H126.422C126.084 31.1146 125.839 31.0378 125.67 30.8689C125.516 30.7153 125.393 30.5617 125.332 30.4235L124.395 27.8896H117.146L116.21 30.4235C116.148 30.5617 116.041 30.7153 115.887 30.8689C115.733 31.0224 115.488 31.1146 115.119 31.1146H110.481H110.543ZM118.575 22.8063H123.059L120.801 16.0338L118.575 22.8063Z" fill="white"/>
<path d="M142.332 31.4218C140.428 31.4218 138.769 31.13 137.341 30.5311C135.913 29.9321 134.807 29.0414 133.993 27.8435C133.179 26.6457 132.734 25.11 132.657 23.2671C132.642 22.4378 132.627 21.5624 132.627 20.6256C132.627 19.6889 132.627 18.7828 132.657 17.9228C132.734 16.1106 133.195 14.6056 134.024 13.3924C134.853 12.1792 135.99 11.2731 137.418 10.6741C138.846 10.0752 140.489 9.76807 142.332 9.76807C143.653 9.76807 144.897 9.92164 146.049 10.2288C147.201 10.5359 148.229 11.012 149.136 11.6417C150.042 12.2713 150.748 13.0545 151.27 13.9913C151.792 14.9281 152.069 16.0185 152.084 17.2624C152.084 17.4467 152.023 17.6003 151.885 17.7078C151.746 17.8306 151.593 17.8921 151.424 17.8921H146.341C146.033 17.8921 145.818 17.8306 145.68 17.7078C145.542 17.5849 145.419 17.3699 145.312 17.0781C145.051 16.2181 144.667 15.6345 144.175 15.3274C143.668 15.0202 143.069 14.882 142.348 14.882C141.472 14.882 140.766 15.1124 140.244 15.5885C139.722 16.0645 139.445 16.8938 139.399 18.0763C139.338 19.7196 139.338 21.4089 139.399 23.1289C139.445 24.3114 139.722 25.1407 140.244 25.6167C140.766 26.0928 141.472 26.3232 142.348 26.3232C143.069 26.3232 143.684 26.1696 144.191 25.8471C144.697 25.5246 145.081 24.9564 145.312 24.1271C145.388 23.8046 145.511 23.5896 145.665 23.4821C145.818 23.3746 146.033 23.3132 146.341 23.3132H151.424C151.608 23.3132 151.762 23.3746 151.885 23.4974C152.023 23.6203 152.084 23.7739 152.084 23.9428C152.069 25.1867 151.792 26.2771 151.27 27.2139C150.748 28.1507 150.042 28.9339 149.136 29.5636C148.229 30.1932 147.201 30.6693 146.049 30.9764C144.897 31.2836 143.653 31.4371 142.332 31.4371V31.4218Z" fill="white"/>
<path d="M155.616 31.1146C155.417 31.1146 155.232 31.0378 155.079 30.8842C154.925 30.7307 154.833 30.5464 154.833 30.3314V10.8277C154.833 10.6127 154.91 10.4284 155.079 10.2748C155.248 10.1212 155.417 10.0444 155.616 10.0444H160.392C160.607 10.0444 160.792 10.1212 160.945 10.2748C161.099 10.4284 161.176 10.6127 161.176 10.8277V17.1548L165.66 10.6894C165.752 10.5512 165.906 10.413 166.075 10.2748C166.259 10.1366 166.505 10.0598 166.827 10.0598H172.325C172.509 10.0598 172.663 10.1212 172.786 10.2594C172.924 10.3977 172.985 10.5512 172.985 10.7202C172.985 10.843 172.939 10.9505 172.862 11.058L166.551 20.1495L173.4 30.1471C173.477 30.2239 173.523 30.3314 173.523 30.4849C173.523 30.6692 173.461 30.8228 173.323 30.9457C173.2 31.0839 173.031 31.1453 172.862 31.1453H167.18C166.796 31.1453 166.52 31.0532 166.32 30.8689C166.136 30.6846 166.013 30.5617 165.982 30.4849L161.176 23.4974V30.3621C161.176 30.5771 161.099 30.7614 160.945 30.9149C160.792 31.0685 160.607 31.1453 160.392 31.1453H155.616V31.1146Z" fill="white"/>
<path d="M64.2867 2.76495V2.56531H65.6382V2.76495H65.07V4.37746H64.855V2.76495H64.2867Z" fill="#FCE301"/>
<path d="M65.9762 2.56531H66.2373L66.8516 4.07032H66.8669L67.4812 2.56531H67.7423V4.37746H67.5426V2.99531H67.5273L66.9591 4.37746H66.7594L66.1912 2.99531H66.1758V4.37746H65.9762V2.56531Z" fill="#FCE301"/>
<path d="M24.5116 32.8347L9.92219 32.4968L10.0297 27.6439L13.6847 27.7361L14.0072 14.191L10.3215 15.8189L8.73969 11.7185C9.26183 11.4881 9.75326 11.2578 10.2447 11.0274C10.7361 10.797 11.2429 10.5206 11.7497 10.1981C12.2565 9.87561 12.794 9.47632 13.3622 9.00025C13.9304 8.50881 14.5601 7.87917 15.2358 7.09595L21.7319 7.24952L21.2405 27.9204L24.6344 27.9972L24.5269 32.8501L24.5116 32.8347Z" fill="black"/>
<path d="M56.409 20.2876C56.2401 18.2758 55.8715 16.4636 55.3033 14.8665C54.7351 13.2693 53.9826 11.9179 53.0305 10.8275C52.0783 9.73713 50.9265 8.93855 49.5444 8.41641C48.1622 7.89426 46.5958 7.72533 44.8297 7.8789C43.3247 8.01712 41.9732 8.44712 40.7754 9.19963C39.5621 9.95213 38.5639 10.935 37.75 12.1482C36.9361 13.3614 36.3525 14.805 35.9993 16.4636C35.646 18.1222 35.5385 19.9036 35.7075 21.8233C35.9071 24.0501 36.3218 25.9851 36.9975 27.5976C37.6578 29.2101 38.5025 30.5308 39.5161 31.5598C40.5297 32.5887 41.6968 33.3105 43.0175 33.7559C44.3383 34.1859 45.7665 34.3394 47.2868 34.2166C48.9301 34.0784 50.3737 33.6484 51.5869 32.9419C52.8155 32.2355 53.8137 31.2834 54.5815 30.0855C55.3648 28.8876 55.9023 27.4594 56.2094 25.8008C56.5166 24.1576 56.5933 22.3147 56.409 20.3029V20.2876ZM49.1451 23.9733C49.0836 24.8947 48.9454 25.6933 48.7304 26.3537C48.5154 27.014 48.2544 27.5515 47.9165 27.9201C47.5786 28.304 47.2101 28.519 46.7954 28.5498C46.4268 28.5805 46.0429 28.4423 45.6283 28.1198C45.2136 27.7973 44.8143 27.3212 44.4611 26.6762C44.0925 26.0312 43.77 25.248 43.4936 24.3265C43.2018 23.4051 43.0175 22.3454 42.91 21.1936C42.8179 20.0726 42.8179 19.0743 42.9407 18.1683C43.0636 17.2622 43.2325 16.4943 43.4782 15.834C43.7086 15.1736 44.0004 14.6668 44.3229 14.3136C44.6454 13.9604 44.9833 13.7607 45.3211 13.73C45.7511 13.6993 46.1811 13.8529 46.6111 14.1907C47.0258 14.5286 47.4097 15.02 47.7629 15.6497C48.1161 16.2793 48.4079 17.0472 48.6383 17.9379C48.8686 18.8286 49.0376 19.8268 49.1297 20.9172C49.2219 22.0383 49.2372 23.0519 49.1758 23.9733H49.1451Z" fill="black"/>
</svg>
